<mxfile host="Electron" modified="2023-10-13T16:29:26.721Z" agent="Mozilla/5.0 (X11; Linux x86_64) AppleWebKit/537.36 (KHTML, like Gecko) draw.io/22.0.2 Chrome/114.0.5735.289 Electron/25.8.4 Safari/537.36" etag="llOyVoA8w3Y2QQFY1O9y" version="22.0.2" type="device">
  <diagram name="Page-1" id="4lZjz9amDKGhlTESDr89">
    <mxGraphModel dx="880" dy="1727" grid="1" gridSize="10" guides="1" tooltips="1" connect="1" arrows="1" fold="1" page="1" pageScale="1" pageWidth="827" pageHeight="1169" math="0" shadow="0">
      <root>
        <mxCell id="0" />
        <mxCell id="1" parent="0" />
        <mxCell id="X16kyrpCpc_oQl7EyKYl-23" style="rounded=0;orthogonalLoop=1;jettySize=auto;html=1;exitX=0.5;exitY=1;exitDx=0;exitDy=0;entryX=0;entryY=0.5;entryDx=0;entryDy=0;endArrow=none;endFill=0;shape=link;" edge="1" parent="1" source="X16kyrpCpc_oQl7EyKYl-9" target="X16kyrpCpc_oQl7EyKYl-16">
          <mxGeometry relative="1" as="geometry" />
        </mxCell>
        <mxCell id="X16kyrpCpc_oQl7EyKYl-9" value="TOURNAMENT" style="whiteSpace=wrap;html=1;align=center;" vertex="1" parent="1">
          <mxGeometry x="110" y="120" width="100" height="40" as="geometry" />
        </mxCell>
        <mxCell id="X16kyrpCpc_oQl7EyKYl-30" style="rounded=0;orthogonalLoop=1;jettySize=auto;html=1;exitX=0;exitY=0;exitDx=0;exitDy=0;endArrow=none;endFill=0;shape=link;entryX=0.5;entryY=1;entryDx=0;entryDy=0;" edge="1" parent="1" source="X16kyrpCpc_oQl7EyKYl-11" target="X16kyrpCpc_oQl7EyKYl-20">
          <mxGeometry relative="1" as="geometry" />
        </mxCell>
        <mxCell id="X16kyrpCpc_oQl7EyKYl-11" value="RESULT" style="whiteSpace=wrap;html=1;align=center;" vertex="1" parent="1">
          <mxGeometry x="540" y="360" width="100" height="40" as="geometry" />
        </mxCell>
        <mxCell id="X16kyrpCpc_oQl7EyKYl-27" style="rounded=0;orthogonalLoop=1;jettySize=auto;html=1;exitX=1;exitY=0.5;exitDx=0;exitDy=0;endArrow=none;endFill=0;shape=link;" edge="1" parent="1" source="X16kyrpCpc_oQl7EyKYl-12" target="X16kyrpCpc_oQl7EyKYl-19">
          <mxGeometry relative="1" as="geometry" />
        </mxCell>
        <mxCell id="X16kyrpCpc_oQl7EyKYl-12" value="PAIRING" style="whiteSpace=wrap;html=1;align=center;" vertex="1" parent="1">
          <mxGeometry x="110" y="360" width="100" height="40" as="geometry" />
        </mxCell>
        <mxCell id="X16kyrpCpc_oQl7EyKYl-13" value="PLAYER" style="whiteSpace=wrap;html=1;align=center;" vertex="1" parent="1">
          <mxGeometry x="540" y="120" width="100" height="40" as="geometry" />
        </mxCell>
        <mxCell id="X16kyrpCpc_oQl7EyKYl-25" style="rounded=0;orthogonalLoop=1;jettySize=auto;html=1;exitX=1;exitY=0;exitDx=0;exitDy=0;endArrow=none;endFill=0;entryX=0;entryY=0.5;entryDx=0;entryDy=0;" edge="1" parent="1" source="X16kyrpCpc_oQl7EyKYl-14" target="X16kyrpCpc_oQl7EyKYl-17">
          <mxGeometry relative="1" as="geometry" />
        </mxCell>
        <mxCell id="X16kyrpCpc_oQl7EyKYl-31" style="rounded=0;orthogonalLoop=1;jettySize=auto;html=1;exitX=1;exitY=1;exitDx=0;exitDy=0;entryX=0;entryY=0.5;entryDx=0;entryDy=0;endArrow=none;endFill=0;shape=link;" edge="1" parent="1" source="X16kyrpCpc_oQl7EyKYl-14" target="X16kyrpCpc_oQl7EyKYl-20">
          <mxGeometry relative="1" as="geometry" />
        </mxCell>
        <mxCell id="X16kyrpCpc_oQl7EyKYl-14" value="BOARD" style="whiteSpace=wrap;html=1;align=center;" vertex="1" parent="1">
          <mxGeometry x="330" y="240" width="100" height="40" as="geometry" />
        </mxCell>
        <mxCell id="X16kyrpCpc_oQl7EyKYl-24" style="rounded=0;orthogonalLoop=1;jettySize=auto;html=1;exitX=1;exitY=0.5;exitDx=0;exitDy=0;entryX=0;entryY=0;entryDx=0;entryDy=0;endArrow=none;endFill=0;shape=link;" edge="1" parent="1" source="X16kyrpCpc_oQl7EyKYl-16" target="X16kyrpCpc_oQl7EyKYl-14">
          <mxGeometry relative="1" as="geometry" />
        </mxCell>
        <mxCell id="X16kyrpCpc_oQl7EyKYl-16" value="HAS" style="shape=rhombus;perimeter=rhombusPerimeter;whiteSpace=wrap;html=1;align=center;" vertex="1" parent="1">
          <mxGeometry x="180" y="180" width="120" height="60" as="geometry" />
        </mxCell>
        <mxCell id="X16kyrpCpc_oQl7EyKYl-26" style="rounded=0;orthogonalLoop=1;jettySize=auto;html=1;exitX=1;exitY=0.5;exitDx=0;exitDy=0;entryX=0.5;entryY=1;entryDx=0;entryDy=0;endArrow=none;endFill=0;" edge="1" parent="1" source="X16kyrpCpc_oQl7EyKYl-17" target="X16kyrpCpc_oQl7EyKYl-13">
          <mxGeometry relative="1" as="geometry" />
        </mxCell>
        <mxCell id="X16kyrpCpc_oQl7EyKYl-17" value="PLAY" style="shape=rhombus;perimeter=rhombusPerimeter;whiteSpace=wrap;html=1;align=center;" vertex="1" parent="1">
          <mxGeometry x="440" y="180" width="120" height="60" as="geometry" />
        </mxCell>
        <mxCell id="X16kyrpCpc_oQl7EyKYl-22" style="edgeStyle=orthogonalEdgeStyle;rounded=0;orthogonalLoop=1;jettySize=auto;html=1;exitX=1;exitY=0.5;exitDx=0;exitDy=0;entryX=0;entryY=0.5;entryDx=0;entryDy=0;endArrow=none;endFill=0;shape=link;" edge="1" parent="1" source="X16kyrpCpc_oQl7EyKYl-18" target="X16kyrpCpc_oQl7EyKYl-13">
          <mxGeometry relative="1" as="geometry" />
        </mxCell>
        <mxCell id="X16kyrpCpc_oQl7EyKYl-18" value="HAS" style="shape=rhombus;perimeter=rhombusPerimeter;whiteSpace=wrap;html=1;align=center;" vertex="1" parent="1">
          <mxGeometry x="310" y="110" width="120" height="60" as="geometry" />
        </mxCell>
        <mxCell id="X16kyrpCpc_oQl7EyKYl-29" style="rounded=0;orthogonalLoop=1;jettySize=auto;html=1;exitX=1;exitY=0.5;exitDx=0;exitDy=0;entryX=0.5;entryY=1;entryDx=0;entryDy=0;endArrow=none;endFill=0;shape=link;" edge="1" parent="1" source="X16kyrpCpc_oQl7EyKYl-19" target="X16kyrpCpc_oQl7EyKYl-14">
          <mxGeometry relative="1" as="geometry" />
        </mxCell>
        <mxCell id="X16kyrpCpc_oQl7EyKYl-19" value="HAS" style="shape=rhombus;perimeter=rhombusPerimeter;whiteSpace=wrap;html=1;align=center;" vertex="1" parent="1">
          <mxGeometry x="240" y="310" width="120" height="60" as="geometry" />
        </mxCell>
        <mxCell id="X16kyrpCpc_oQl7EyKYl-20" value="HAS" style="shape=rhombus;perimeter=rhombusPerimeter;whiteSpace=wrap;html=1;align=center;" vertex="1" parent="1">
          <mxGeometry x="430" y="290" width="120" height="60" as="geometry" />
        </mxCell>
        <mxCell id="X16kyrpCpc_oQl7EyKYl-32" value="id" style="ellipse;whiteSpace=wrap;html=1;align=center;fontStyle=4" vertex="1" parent="1">
          <mxGeometry x="125" y="50" width="70" height="30" as="geometry" />
        </mxCell>
        <mxCell id="X16kyrpCpc_oQl7EyKYl-34" style="rounded=0;orthogonalLoop=1;jettySize=auto;html=1;exitX=0.5;exitY=1;exitDx=0;exitDy=0;entryX=0.4;entryY=0;entryDx=0;entryDy=0;entryPerimeter=0;endArrow=none;endFill=0;" edge="1" parent="1" source="X16kyrpCpc_oQl7EyKYl-32" target="X16kyrpCpc_oQl7EyKYl-9">
          <mxGeometry relative="1" as="geometry" />
        </mxCell>
        <mxCell id="X16kyrpCpc_oQl7EyKYl-36" style="rounded=0;orthogonalLoop=1;jettySize=auto;html=1;exitX=0.5;exitY=1;exitDx=0;exitDy=0;endArrow=none;endFill=0;" edge="1" parent="1" source="X16kyrpCpc_oQl7EyKYl-35" target="X16kyrpCpc_oQl7EyKYl-9">
          <mxGeometry relative="1" as="geometry" />
        </mxCell>
        <mxCell id="X16kyrpCpc_oQl7EyKYl-35" value="Name" style="ellipse;whiteSpace=wrap;html=1;align=center;" vertex="1" parent="1">
          <mxGeometry x="195" y="30" width="70" height="30" as="geometry" />
        </mxCell>
        <mxCell id="X16kyrpCpc_oQl7EyKYl-37" style="rounded=0;orthogonalLoop=1;jettySize=auto;html=1;exitX=0.5;exitY=1;exitDx=0;exitDy=0;endArrow=none;endFill=0;" edge="1" parent="1" source="X16kyrpCpc_oQl7EyKYl-38" target="X16kyrpCpc_oQl7EyKYl-9">
          <mxGeometry relative="1" as="geometry">
            <mxPoint x="23" y="110" as="targetPoint" />
          </mxGeometry>
        </mxCell>
        <mxCell id="X16kyrpCpc_oQl7EyKYl-38" value="Venue" style="ellipse;whiteSpace=wrap;html=1;align=center;" vertex="1" parent="1">
          <mxGeometry x="40" y="20" width="70" height="30" as="geometry" />
        </mxCell>
        <mxCell id="X16kyrpCpc_oQl7EyKYl-43" value="id" style="ellipse;whiteSpace=wrap;html=1;align=center;fontStyle=4" vertex="1" parent="1">
          <mxGeometry x="540" y="60" width="70" height="30" as="geometry" />
        </mxCell>
        <mxCell id="X16kyrpCpc_oQl7EyKYl-44" value="Name" style="ellipse;whiteSpace=wrap;html=1;align=center;" vertex="1" parent="1">
          <mxGeometry x="610" y="30" width="70" height="30" as="geometry" />
        </mxCell>
        <mxCell id="X16kyrpCpc_oQl7EyKYl-46" value="1" style="text;html=1;strokeColor=none;fillColor=none;align=center;verticalAlign=middle;whiteSpace=wrap;rounded=0;" vertex="1" parent="1">
          <mxGeometry x="408" y="116" width="60" height="30" as="geometry" />
        </mxCell>
        <mxCell id="X16kyrpCpc_oQl7EyKYl-47" value="" style="shape=link;html=1;rounded=0;" edge="1" parent="1">
          <mxGeometry relative="1" as="geometry">
            <mxPoint x="210" y="140" as="sourcePoint" />
            <mxPoint x="310" y="140" as="targetPoint" />
          </mxGeometry>
        </mxCell>
        <mxCell id="X16kyrpCpc_oQl7EyKYl-48" value="N" style="resizable=0;html=1;whiteSpace=wrap;align=right;verticalAlign=bottom;" connectable="0" vertex="1" parent="X16kyrpCpc_oQl7EyKYl-47">
          <mxGeometry x="1" relative="1" as="geometry" />
        </mxCell>
        <mxCell id="X16kyrpCpc_oQl7EyKYl-53" style="edgeStyle=orthogonalEdgeStyle;rounded=0;orthogonalLoop=1;jettySize=auto;html=1;exitX=0.5;exitY=1;exitDx=0;exitDy=0;" edge="1" parent="1" source="X16kyrpCpc_oQl7EyKYl-51" target="X16kyrpCpc_oQl7EyKYl-44">
          <mxGeometry relative="1" as="geometry" />
        </mxCell>
        <mxCell id="X16kyrpCpc_oQl7EyKYl-51" value="FName" style="ellipse;whiteSpace=wrap;html=1;align=center;" vertex="1" parent="1">
          <mxGeometry x="580" y="-20" width="70" height="30" as="geometry" />
        </mxCell>
        <mxCell id="X16kyrpCpc_oQl7EyKYl-54" style="edgeStyle=orthogonalEdgeStyle;rounded=0;orthogonalLoop=1;jettySize=auto;html=1;exitX=0.5;exitY=1;exitDx=0;exitDy=0;entryX=1;entryY=0;entryDx=0;entryDy=0;" edge="1" parent="1" source="X16kyrpCpc_oQl7EyKYl-52" target="X16kyrpCpc_oQl7EyKYl-44">
          <mxGeometry relative="1" as="geometry" />
        </mxCell>
        <mxCell id="X16kyrpCpc_oQl7EyKYl-52" value="LName" style="ellipse;whiteSpace=wrap;html=1;align=center;" vertex="1" parent="1">
          <mxGeometry x="660" y="-20" width="70" height="30" as="geometry" />
        </mxCell>
        <mxCell id="X16kyrpCpc_oQl7EyKYl-55" style="edgeStyle=orthogonalEdgeStyle;rounded=0;orthogonalLoop=1;jettySize=auto;html=1;exitX=0.5;exitY=1;exitDx=0;exitDy=0;entryX=0.92;entryY=-0.05;entryDx=0;entryDy=0;entryPerimeter=0;" edge="1" parent="1" source="X16kyrpCpc_oQl7EyKYl-44" target="X16kyrpCpc_oQl7EyKYl-13">
          <mxGeometry relative="1" as="geometry" />
        </mxCell>
        <mxCell id="X16kyrpCpc_oQl7EyKYl-58" value="Entity" style="shape=ext;margin=3;double=1;whiteSpace=wrap;html=1;align=center;" vertex="1" parent="1">
          <mxGeometry x="380" y="-40" width="100" height="40" as="geometry" />
        </mxCell>
      </root>
    </mxGraphModel>
  </diagram>
</mxfile>
